<?xml version="1.0" encoding="utf-8"?>
<!-- Generator: Adobe Illustrator 19.2.1, SVG Export Plug-In . SVG Version: 6.00 Build 0)  -->
<svg version="1.1" id="Layer_1" xmlns="http://www.w3.org/2000/svg" xmlns:xlink="http://www.w3.org/1999/xlink" x="0px" y="0px"
	 viewBox="0 0 52 52" style="enable-background:new 0 0 52 52;" xml:space="preserve">
<style type="text/css">
	.st0{fill-rule:evenodd;clip-rule:evenodd;fill:#FFF200;}
	.st1{fill:#191919;}
	.st2{opacity:0.59;}
	.st3{fill-rule:evenodd;clip-rule:evenodd;fill:#E7A96B;}
	.st4{fill-rule:evenodd;clip-rule:evenodd;}
	.st5{fill-rule:evenodd;clip-rule:evenodd;fill:#E7A442;}
	.st6{fill-rule:evenodd;clip-rule:evenodd;fill:#FFFFFF;}
	.st7{fill:none;}
	.st8{fill:#231F20;}
	.st9{fill:none;stroke:#231F20;stroke-width:1.5;stroke-linecap:round;stroke-linejoin:round;stroke-miterlimit:10;}
	.st10{fill-rule:evenodd;clip-rule:evenodd;fill:none;stroke:#000000;stroke-width:2;stroke-miterlimit:10;}
	.st11{opacity:0.2;fill-rule:evenodd;clip-rule:evenodd;}
	.st12{fill-rule:evenodd;clip-rule:evenodd;fill:#FFFFFF;stroke:#020202;stroke-width:0.5;stroke-miterlimit:10;}
	
		.st13{fill-rule:evenodd;clip-rule:evenodd;fill:none;stroke:#000000;stroke-width:2;stroke-linecap:round;stroke-linejoin:round;stroke-miterlimit:10;}
	.st14{fill-rule:evenodd;clip-rule:evenodd;fill:#8FE3E5;}
	.st15{fill:#FFFFFF;}
	.st16{opacity:0.2;}
	.st17{fill:#E54265;}
	.st18{fill-rule:evenodd;clip-rule:evenodd;fill:#F2A464;}
	.st19{fill:#020202;}
	.st20{fill-rule:evenodd;clip-rule:evenodd;fill:#A69EEF;}
	.st21{fill-rule:evenodd;clip-rule:evenodd;fill:#FFDA00;}
	.st22{fill-rule:evenodd;clip-rule:evenodd;fill:none;stroke:#020202;stroke-width:2;stroke-miterlimit:10;}
	.st23{fill-rule:evenodd;clip-rule:evenodd;fill:#FF8B00;}
	.st24{fill:#30C630;}
	.st25{fill-rule:evenodd;clip-rule:evenodd;fill:#F784A2;}
	.st26{fill:#22A822;}
	.st27{fill:#2D8C2D;}
	.st28{opacity:0.5;fill-rule:evenodd;clip-rule:evenodd;fill:#8FB8E2;}
</style>
<g class="st2">
	<g>
		<path class="st3" d="M42.2,31.8c-1.7,0-3.1,1.3-3.1,3s1.4,3,3.1,3c1.7,0,3.1-1.3,3.1-3S43.9,31.8,42.2,31.8z M11.2,31.6
			C9.4,31.6,8,33,8,34.7c0,1.7,1.4,3.1,3.1,3.1c1.7,0,3.1-1.4,3.1-3.1C14.3,33,12.9,31.6,11.2,31.6z"/>
	</g>
</g>
<g>
	<g>
		<path class="st4" d="M17.9,25.5c-1.8-0.7-2.7-2.7-2-4.5c0.3-0.9,1-1.6,1.7-1.9c-0.2-0.1-0.5-0.2-0.8-0.3c-4.1-1.6-8.6,0.4-10,4.4
			c-1.4,4,0.7,8.4,4.8,10c4.1,1.6,8.6-0.4,10-4.4c0.5-1.5,0.6-3.1,0.2-4.5C21,25.5,19.4,26.1,17.9,25.5z M29.3,37.3
			c-1.9-0.6-4,0.9-4.8,3.3c-0.8,2.4,0.2,4.8,2,5.4c1.9,0.6,4-0.9,4.8-3.3C32.1,40.2,31.2,37.9,29.3,37.3z M46.5,23.9
			c-0.9,1.3-2.5,1.9-4,1.3c-1.8-0.7-2.7-2.7-2-4.5c0.3-0.9,0.9-1.6,1.7-1.9c-0.2-0.1-0.5-0.2-0.8-0.3c-4.1-1.5-8.6,0.4-10,4.4
			c-1.4,4,0.8,8.4,4.9,10c4.1,1.5,8.6-0.4,10-4.4C46.9,26.9,46.9,25.4,46.5,23.9z"/>
	</g>
</g>
<path class="st5" d="M29.2,41.5c1,0.5,1.2,1.6,0.6,2.5c-0.7,0.9-2,1.2-2.9,0.8c-1-0.5-1.2-1.6-0.6-2.5C26.9,41.3,28.3,41,29.2,41.5z
	"/>
<g>
	<path class="st8" d="M7.1,12.5c-0.1,0-0.3,0-0.4-0.1c-0.3-0.2-0.4-0.7-0.2-1c0.1-0.1,2-2.8,5.6-2.8c0,0,0.1,0,0.1,0
		c3.2,0,5.3,1.8,5.3,1.9c0.3,0.3,0.3,0.8,0.1,1.1s-0.8,0.3-1.1,0.1c0,0-1.7-1.5-4.3-1.5c0,0-0.1,0-0.1,0c-2.8,0-4.3,2.1-4.4,2.2
		C7.5,12.4,7.3,12.5,7.1,12.5z"/>
</g>
<g>
	<path class="st8" d="M43.3,12.5c-0.2,0-0.5-0.1-0.6-0.3c-0.1-0.1-1.5-2.2-4.4-2.2c-2.7,0-4.4,1.5-4.4,1.5c-0.3,0.3-0.8,0.3-1.1-0.1
		c-0.3-0.3-0.3-0.8,0.1-1.1c0.1-0.1,2.2-1.9,5.4-1.9c3.6,0,5.5,2.7,5.6,2.8c0.2,0.3,0.1,0.8-0.2,1C43.6,12.5,43.5,12.5,43.3,12.5z"
		/>
</g>
</svg>
