<?xml version="1.0" encoding="utf-8"?>
<!-- Generator: Adobe Illustrator 19.2.1, SVG Export Plug-In . SVG Version: 6.00 Build 0)  -->
<svg version="1.1" id="Layer_1" xmlns="http://www.w3.org/2000/svg" xmlns:xlink="http://www.w3.org/1999/xlink" x="0px" y="0px"
	 viewBox="0 0 52 52" style="enable-background:new 0 0 52 52;" xml:space="preserve">
<style type="text/css">
	.st0{fill-rule:evenodd;clip-rule:evenodd;fill:#FFF200;}
	.st1{fill:#191919;}
	.st2{opacity:0.59;}
	.st3{fill-rule:evenodd;clip-rule:evenodd;fill:#E7A96B;}
	.st4{fill-rule:evenodd;clip-rule:evenodd;}
	.st5{fill-rule:evenodd;clip-rule:evenodd;fill:#E7A442;}
	.st6{fill-rule:evenodd;clip-rule:evenodd;fill:#FFFFFF;}
	.st7{fill:none;}
	.st8{fill:#231F20;}
	.st9{fill:none;stroke:#231F20;stroke-width:1.5;stroke-linecap:round;stroke-linejoin:round;stroke-miterlimit:10;}
	.st10{fill-rule:evenodd;clip-rule:evenodd;fill:none;stroke:#000000;stroke-width:2;stroke-miterlimit:10;}
	.st11{opacity:0.2;fill-rule:evenodd;clip-rule:evenodd;}
	.st12{fill-rule:evenodd;clip-rule:evenodd;fill:#FFFFFF;stroke:#020202;stroke-width:0.5;stroke-miterlimit:10;}
	
		.st13{fill-rule:evenodd;clip-rule:evenodd;fill:none;stroke:#000000;stroke-width:2;stroke-linecap:round;stroke-linejoin:round;stroke-miterlimit:10;}
	.st14{fill-rule:evenodd;clip-rule:evenodd;fill:#8FE3E5;}
	.st15{fill:#FFFFFF;}
	.st16{opacity:0.2;}
	.st17{fill:#E54265;}
	.st18{fill-rule:evenodd;clip-rule:evenodd;fill:#F2A464;}
	.st19{fill:#020202;}
	.st20{fill-rule:evenodd;clip-rule:evenodd;fill:#A69EEF;}
	.st21{fill-rule:evenodd;clip-rule:evenodd;fill:#FFDA00;}
	.st22{fill-rule:evenodd;clip-rule:evenodd;fill:none;stroke:#020202;stroke-width:2;stroke-miterlimit:10;}
	.st23{fill-rule:evenodd;clip-rule:evenodd;fill:#FF8B00;}
	.st24{fill:#30C630;}
	.st25{fill-rule:evenodd;clip-rule:evenodd;fill:#F784A2;}
	.st26{fill:#22A822;}
	.st27{fill:#2D8C2D;}
	.st28{opacity:0.5;fill-rule:evenodd;clip-rule:evenodd;fill:#8FB8E2;}
</style>
<path class="st15" d="M23.9,27.8l-0.2,2.8c0,0.7,0.5,1.2,1.1,1.3l2.3,0.1c0.7,0,1.2-0.5,1.3-1.1l0.2-2.7
	C27.6,28.1,25.4,27.9,23.9,27.8z"/>
<path d="M37.3,43.8c-3.5-1.2-7.1-4.1-11.3-4.1c-3.8,0-7.1,3.4-10,4.4c-1.1,0.4-4.1,0.8-2.5-4.7c1.2-4.2,4.4-12,12.7-12
	c7.9,0,11.8,7.2,12.8,11.8C40,43.9,38.1,44.1,37.3,43.8z"/>
<circle class="st11" cx="37.2" cy="20.7" r="6.3"/>
<g>
	<circle class="st6" cx="37.8" cy="19.8" r="6"/>
	<path class="st19" d="M37.8,26c-3.4,0-6.2-2.8-6.2-6.2s2.8-6.2,6.2-6.2s6.2,2.8,6.2,6.2S41.2,26,37.8,26z M37.8,14.1
		c-3.2,0-5.7,2.6-5.7,5.7s2.6,5.7,5.7,5.7s5.7-2.6,5.7-5.7S40.9,14.1,37.8,14.1z"/>
</g>
<circle class="st11" cx="13.7" cy="20.3" r="6.3"/>
<g>
	<circle class="st6" cx="14.3" cy="19.4" r="6"/>
	<path class="st19" d="M14.3,25.6c-3.4,0-6.2-2.8-6.2-6.2s2.8-6.2,6.2-6.2s6.2,2.8,6.2,6.2S17.7,25.6,14.3,25.6z M14.3,13.7
		c-3.2,0-5.7,2.6-5.7,5.7s2.6,5.7,5.7,5.7s5.7-2.6,5.7-5.7S17.4,13.7,14.3,13.7z"/>
</g>
<circle class="st4" cx="14.3" cy="19.3" r="1.4"/>
<circle class="st4" cx="37.8" cy="19.3" r="1.4"/>
<path class="st17" d="M33,40.2c-0.5,0.5-4.1-1.6-6.8-1.6c-2.8,0-6.2,2.7-6.8,1.4c-0.2-0.4,1.2-5.2,6.8-5.2
	C31.9,34.8,33.3,39.9,33,40.2z"/>
<path class="st15" d="M20.7,29.8l0.3,1.6c0,0.7,0.6,1.2,1.2,1.2l2.3-0.1c0.7,0,1.2-0.6,1.2-1.2L25.4,29c0-0.6-0.3-1-0.5-1
	c-1,0-2.2,0.6-3.6,1C20.6,29.1,20.7,29.6,20.7,29.8z"/>
<path class="st15" d="M31.4,29.6l-0.3,1.8c0,0.7-0.6,1.2-1.2,1.2l-2.3-0.1c-0.7,0-1.2-0.6-1.2-1.2l0.2-2.3c0-0.6,0.3-1,0.5-1
	c1,0,2.2,0.4,3.6,0.8C31.4,28.9,31.4,29.4,31.4,29.6z"/>
<path class="st16" d="M26.1,27.4c2.9-0.1,9.5,2.6,9.8,5.9c0.1,0.7-0.3,0.1-1-0.8c-1.3-1.9-5.7-3.5-8.2-3.5c-3.3,0.1-6,1.6-8.4,3.4
	c-0.3,0.2-0.8,0-0.9-0.4c-0.1-0.3,0.2-0.5,0.4-0.7C20,29,22.7,27.4,26.1,27.4z"/>
</svg>
